<svg width="24" height="24" viewBox="0 0 24 24" fill="none" xmlns="http://www.w3.org/2000/svg">
    <rect x="1" y="1" width="22" height="22" rx="2" fill="#659C57"/>
    <rect x="1" y="1" width="22" height="22" rx="2" stroke="#659C57" stroke-width="2"/>
    <path fill-rule="evenodd" clip-rule="evenodd" d="M9.83074 17.3692L4.75382 12.2615C4.5692 12.0769 4.5692 11.7692 4.75382 11.5846L5.43074 10.9077C5.61536 10.7231 5.92305 10.7231 6.10766 10.9077L9.92305 14.7538C10.0461 14.8769 10.2615 14.8769 10.3846 14.7538L17.8615 7.21537C18.0461 7.03075 18.3538 7.03075 18.5384 7.21537L19.2154 7.89229C19.4 8.0769 19.4 8.3846 19.2154 8.56921L10.5077 17.3692C10.323 17.5846 10.0154 17.5846 9.83074 17.3692Z" fill="white"/>
</svg>
