<svg width="17" height="17" viewBox="0 0 17 17" fill="none" xmlns="http://www.w3.org/2000/svg">
<path d="M1.16391 2.73867C1.08258 2.64917 1.02896 2.538 1.00956 2.41863C0.990159 2.29927 1.0058 2.17684 1.0546 2.06619C1.10339 1.95554 1.18323 1.86142 1.28445 1.79524C1.38567 1.72906 1.50391 1.69367 1.62484 1.69336H15.3748C15.4959 1.69337 15.6144 1.72854 15.7158 1.7946C15.8173 1.86066 15.8974 1.95476 15.9463 2.06547C15.9953 2.17619 16.0111 2.29874 15.9917 2.41825C15.9724 2.53776 15.9188 2.64907 15.8373 2.73867L10.3748 8.56836V13.1504C10.3749 13.2533 10.3496 13.3547 10.301 13.4454C10.2525 13.5362 10.1823 13.6136 10.0967 13.6707L7.59672 15.3371C7.50268 15.3998 7.39339 15.4359 7.28048 15.4415C7.16757 15.447 7.05527 15.4218 6.95554 15.3686C6.85581 15.3153 6.77239 15.2361 6.71415 15.1392C6.65592 15.0423 6.62505 14.9314 6.62484 14.8184V8.56836L1.16391 2.73867Z" stroke="white" stroke-width="1.5" stroke-linecap="round" stroke-linejoin="round"/>
</svg>
