<svg width="13" height="14" viewBox="0 0 13 14" fill="none" xmlns="http://www.w3.org/2000/svg">
    <g clip-path="url(#clip0_3569_21256)">
    <path d="M10.9688 3.34375H2.03125" stroke="#EF4444" stroke-width="1.2" stroke-linecap="round" stroke-linejoin="round"/>
    <path d="M5.28125 5.78125V9.03125" stroke="#EF4444" stroke-width="1.2" stroke-linecap="round" stroke-linejoin="round"/>
    <path d="M7.71875 5.78125V9.03125" stroke="#EF4444" stroke-width="1.2" stroke-linecap="round" stroke-linejoin="round"/>
    <path d="M10.1562 3.34375V11.0625C10.1562 11.1702 10.1134 11.2736 10.0373 11.3498C9.96108 11.4259 9.85774 11.4688 9.75 11.4688H3.25C3.14226 11.4688 3.03892 11.4259 2.96274 11.3498C2.88655 11.2736 2.84375 11.1702 2.84375 11.0625V3.34375" stroke="#EF4444" stroke-width="1.2" stroke-linecap="round" stroke-linejoin="round"/>
    <path d="M8.53125 3.34375V2.53125C8.53125 2.31576 8.44565 2.1091 8.29327 1.95673C8.1409 1.80435 7.93424 1.71875 7.71875 1.71875H5.28125C5.06576 1.71875 4.8591 1.80435 4.70673 1.95673C4.55435 2.1091 4.46875 2.31576 4.46875 2.53125V3.34375" stroke="#EF4444" stroke-width="1.2" stroke-linecap="round" stroke-linejoin="round"/>
    </g>
    <defs>
        <clipPath id="clip0_3569_21256">
            <rect width="13" height="13" fill="white" transform="translate(0 0.5)"/>
        </clipPath>
    </defs>
</svg>
