<svg width="20" height="20" viewBox="0 0 20 20" fill="none" xmlns="http://www.w3.org/2000/svg">
<g clip-path="url(#clip0_2315_2542)">
<path d="M2.47336 13.7313C2.39295 13.7544 2.30784 13.7555 2.22686 13.7345C2.14589 13.7136 2.07199 13.6713 2.01285 13.6122C1.9537 13.553 1.91146 13.4791 1.8905 13.3982C1.86955 13.3172 1.87064 13.2321 1.89367 13.1517L2.56008 10.8181C1.91264 9.63027 1.71496 8.24893 2.00325 6.92722C2.29155 5.60551 3.04652 4.43197 4.12978 3.62168C5.21305 2.81139 6.55204 2.41863 7.90136 2.51539C9.25069 2.61215 10.5199 3.19194 11.4765 4.14851C12.4331 5.10507 13.0129 6.37433 13.1096 7.72365C13.2064 9.07297 12.8136 10.412 12.0033 11.4952C11.193 12.5785 10.0195 13.3335 8.6978 13.6218C7.37608 13.9101 5.99475 13.7124 4.80695 13.0649L2.47336 13.7313Z" stroke="#3B82F6" stroke-width="1.5" stroke-linecap="round" stroke-linejoin="round"/>
<path d="M7.19238 13.7414C7.46317 14.5101 7.89765 15.2108 8.46581 15.7951C9.03396 16.3795 9.72222 16.8334 10.483 17.1257C11.2438 17.418 12.059 17.5415 12.8723 17.4878C13.6855 17.4342 14.4774 17.2045 15.1932 16.8148L17.5268 17.4812C17.6072 17.5042 17.6923 17.5053 17.7733 17.4844C17.8542 17.4634 17.9281 17.4212 17.9873 17.362C18.0464 17.3029 18.0887 17.229 18.1096 17.148C18.1306 17.067 18.1295 16.9819 18.1064 16.9015L17.44 14.5679C17.8947 13.734 18.1308 12.7986 18.1264 11.8489C18.1219 10.8991 17.8771 9.96593 17.4146 9.13635C16.9522 8.30676 16.2872 7.60778 15.4817 7.10457C14.6762 6.60136 13.7564 6.31031 12.808 6.25854" stroke="#3B82F6" stroke-width="1.5" stroke-linecap="round" stroke-linejoin="round"/>
</g>
<defs>
<clipPath id="clip0_2315_2542">
<rect width="20" height="20" fill="white"/>
</clipPath>
</defs>
</svg>
