<svg width="20" height="20" viewBox="0 0 20 20" fill="none" xmlns="http://www.w3.org/2000/svg">
<g id="CaretDown">
<path id="Vector" d="M16.6922 7.9422L10.4422 14.1922C10.3842 14.2503 10.3152 14.2964 10.2393 14.3279C10.1635 14.3593 10.0821 14.3755 10 14.3755C9.91788 14.3755 9.83655 14.3593 9.76067 14.3279C9.6848 14.2964 9.61587 14.2503 9.55782 14.1922L3.30782 7.9422C3.19055 7.82492 3.12466 7.66586 3.12466 7.50001C3.12466 7.33416 3.19055 7.1751 3.30782 7.05782C3.4251 6.94055 3.58416 6.87466 3.75001 6.87466C3.91586 6.87466 4.07492 6.94055 4.1922 7.05782L10 12.8664L15.8078 7.05782C15.8659 6.99976 15.9348 6.95369 16.0107 6.92227C16.0866 6.89084 16.1679 6.87466 16.25 6.87466C16.3321 6.87466 16.4135 6.89084 16.4893 6.92227C16.5652 6.95369 16.6341 6.99976 16.6922 7.05782C16.7503 7.11589 16.7963 7.18483 16.8278 7.2607C16.8592 7.33657 16.8754 7.41789 16.8754 7.50001C16.8754 7.58213 16.8592 7.66345 16.8278 7.73932C16.7963 7.81519 16.7503 7.88413 16.6922 7.9422Z" fill="white"/>
</g>
</svg>
